<?xml version="1.0" encoding="utf-8"?>
<!-- Generator: Adobe Illustrator 21.1.0, SVG Export Plug-In . SVG Version: 6.00 Build 0)  -->
<svg version="1.1" id="Layer_1" xmlns="http://www.w3.org/2000/svg" xmlns:xlink="http://www.w3.org/1999/xlink" x="0px" y="0px"
	 viewBox="0 0 1000 500" style="enable-background:new 0 0 1000 500;" xml:space="preserve">
<style type="text/css">
	.st0{fill:#FFFFFF;}
	.st1{fill:#FFFFFF;stroke:#000000;stroke-width:4;stroke-linecap:round;stroke-linejoin:round;stroke-miterlimit:10;}
</style>
<g>
	<path class="st0" d="M346.9,153.8l-12.5,5.1l0.4,4.6l-5.8,2.4l-2.3-36.9l4.7-1.9l24.1,28l-5.8,2.4L346.9,153.8z M343.5,149.6
		l-11.4-14.1l1.7,18L343.5,149.6z"/>
	<path class="st0" d="M362.5,140.6l-6.3-22.5l5.5-1.6l6.2,22.2c1.4,4.9,4.8,6.6,9,5.4c4.2-1.2,6.3-4.5,4.9-9.3l-6.2-22.2l5.5-1.6
		l6.3,22.5c2.2,7.8-1.6,13.4-9.2,15.5S364.7,148.4,362.5,140.6z"/>
	<path class="st0" d="M405.5,111.6l-10,1.7l-0.9-5.3l25.7-4.4l0.9,5.3l-10.1,1.7l4.9,29.2l-5.7,1L405.5,111.6z"/>
	<path class="st0" d="M434.8,102l5.7-0.3l0.9,15l14.4-0.9l-0.9-15l5.7-0.3l2.1,34.9l-5.7,0.3l-0.9-14.8l-14.4,0.9l0.9,14.8l-5.7,0.3
		L434.8,102z"/>
	<path class="st0" d="M478.6,100.5l20.2,0.8l-0.2,5.1l-14.4-0.5l-0.4,9.9l14.4,0.5l-0.2,5.1l-14.4-0.5l-0.4,9.6l14.4,0.5l-0.2,5.1
		l-20.2-0.8L478.6,100.5z"/>
	<path class="st0" d="M515.7,102.5l6,0.7l10.7,26.9l3-25.2l5.5,0.7l-4.2,34.7l-6-0.7L520,112.7l-3,25.2l-5.5-0.7L515.7,102.5z"/>
	<path class="st0" d="M563.7,115.3l-9.9-2.2l1.1-5.3l25.5,5.5l-1.1,5.3l-10-2.2l-6.3,28.9l-5.6-1.2L563.7,115.3z"/>
	<path class="st0" d="M593.8,117.2l5.5,1.7l-10.1,33.5l-5.5-1.7L593.8,117.2z"/>
	<path class="st0" d="M607.9,139.7c4.2-9.8,13.5-14.2,24-9.7c8.9,3.8,12.5,11.3,10.5,18.5l-5.8-2.5c0.9-4.8-1.4-9-6.7-11.3
		c-7.1-3.1-13.3,0-16.4,7.3s-1.1,13.9,6,16.9c5.3,2.3,9.9,1,12.8-2.9l5.8,2.5c-3.9,6.4-11.8,8.9-20.6,5.1
		C607,159.2,603.7,149.5,607.9,139.7z"/>
</g>
<g>
	<path class="st0" d="M299.9,373.9l3.1,1.5c-1.1,2.5-0.4,4.6,1.9,5.7c2.1,1,3.7,0.5,4.4-1.2c0.7-1.4,0.3-2.5-1.4-4.4l-2.5-2.7
		c-2-2-2.4-4.3-1.3-6.8c1.4-3.1,4.9-4.1,8.5-2.4c3.8,1.8,5.2,5.3,3.5,8.9l-3.1-1.5c1-2.1,0.4-3.8-1.7-4.8c-1.8-0.8-3.3-0.4-3.9,1.1
		c-0.6,1.3-0.1,2.6,1.7,4.5l2.3,2.4c1.9,2.1,2.4,4.3,1.2,6.9c-1.5,3.3-5.1,4.3-8.9,2.5C299.3,381.8,297.9,378.2,299.9,373.9z"/>
	<path class="st0" d="M326,369.8l3.2,1.2l-7.3,19.7l-3.2-1.2L326,369.8z"/>
	<path class="st0" d="M355,393.1l-2.2-0.6c-2.3,4.4-6.6,6.4-12,4.9c-6.4-1.8-9.1-7.5-7.4-13.4c1.6-5.6,6.7-9.7,13.7-7.7
		c4.9,1.4,7.6,5.3,6.9,9l-3.6-1c0.1-2.1-1.2-4.2-4.1-5c-4.9-1.4-8.2,1.5-9.4,5.7c-1.2,4.2,0.5,8.2,4.8,9.4c3.3,0.9,6,0.1,7.7-2.9
		l-3.9-1.1l0.8-3l9.6,2.7L355,393.1z"/>
	<path class="st0" d="M365.6,381.4l3.6,0.7l5.2,16.6l3-15l3.2,0.6l-4.1,20.6l-3.6-0.7l-5.2-16.6l-3,15l-3.2-0.6L365.6,381.4z"/>
	<path class="st0" d="M385.9,399.6l3.4,0.5c-0.4,2.7,0.9,4.6,3.5,4.9c2.3,0.3,3.7-0.5,3.9-2.4c0.2-1.6-0.4-2.5-2.6-3.8l-3.2-1.8
		c-2.5-1.4-3.6-3.4-3.2-6.1c0.5-3.4,3.5-5.3,7.5-4.8c4.1,0.6,6.5,3.5,5.9,7.5l-3.4-0.5c0.3-2.3-0.7-3.8-3.1-4.1
		c-2-0.3-3.2,0.6-3.5,2.1c-0.2,1.4,0.7,2.5,3,3.8l2.9,1.7c2.5,1.4,3.5,3.5,3.1,6.3c-0.5,3.6-3.6,5.6-7.7,5
		C387.6,407.3,385.3,404.3,385.9,399.6z"/>
	<path class="st0" d="M419.5,400.1c0.4-6,4.8-10.7,11.6-10.3s10.5,5.7,10.1,11.7c-0.4,6-4.8,10.7-11.6,10.3S419.2,406.1,419.5,400.1
		z M437.6,401.3c0.3-4.3-2.1-8.1-6.7-8.4s-7.5,3.1-7.7,7.4c-0.3,4.3,2.1,8.1,6.7,8.4S437.3,405.6,437.6,401.3z"/>
	<path class="st0" d="M448.9,391.2l12.1,0.3l-0.1,3.1l-8.7-0.2l-0.2,6.7l8.7,0.2l-0.1,3.1l-8.7-0.2l-0.2,8.2l-3.4-0.1L448.9,391.2z"
		/>
	<path class="st0" d="M492.2,409.5l-8.1,0.2l-0.7,2.7l-3.7,0.1l6.6-21.2l3-0.1l7.6,20.8l-3.8,0.1L492.2,409.5z M491.1,406.5
		l-3.4-10.3l-2.9,10.5L491.1,406.5z"/>
	<path class="st0" d="M503,390.8l3.4-0.2l0.9,17.7l8.4-0.5l0.2,3.2l-11.9,0.6L503,390.8z"/>
	<path class="st0" d="M522.3,389.6l3.4-0.3l1.5,17.7l8.4-0.7l0.3,3.2l-11.8,1L522.3,389.6z"/>
	<path class="st0" d="M561.1,395.8l10.5,9.2l-4.3,0.6l-9.1-8.2l1.4,9.3l-3.4,0.5l-3.1-20.8l3.4-0.5l1.4,9.4l6.4-10.5l4.3-0.6
		L561.1,395.8z"/>
	<path class="st0" d="M575.4,382.9l3.4-0.6l3.9,20.6l-3.4,0.6L575.4,382.9z"/>
	<path class="st0" d="M587.5,380.6l3.5-0.8l11.6,12.9l-3.5-14.8l3.2-0.8l4.9,20.4l-3.5,0.8l-11.6-12.9l3.5,14.8l-3.2,0.8
		L587.5,380.6z"/>
	<path class="st0" d="M610.7,374.8l6.8-2.2c6.6-2.2,11.6,1.5,13.3,6.7c1.7,5.2-0.2,11.1-6.8,13.3l-6.8,2.2L610.7,374.8z
		 M622.7,389.7c4.9-1.6,5.9-5.8,4.7-9.3c-1.2-3.6-4.4-6.4-9.3-4.8l-3.2,1l4.6,14.1L622.7,389.7z"/>
	<path class="st0" d="M638.6,380.1l3.2-1.4c1.1,2.5,3.2,3.4,5.6,2.3c2.1-0.9,2.8-2.4,2-4.1c-0.6-1.5-1.7-1.9-4.2-1.8l-3.7,0.1
		c-2.8,0.1-4.9-1-5.9-3.5c-1.4-3.1,0.2-6.4,3.8-8c3.8-1.7,7.4-0.4,9,3.2l-3.1,1.4c-0.9-2.1-2.6-2.8-4.8-1.8
		c-1.8,0.8-2.4,2.2-1.8,3.7c0.6,1.3,1.9,1.8,4.6,1.7l3.3-0.1c2.9-0.1,4.8,1.1,6,3.7c1.5,3.3-0.1,6.6-3.9,8.3
		C644.2,385.7,640.6,384.4,638.6,380.1z"/>
</g>
<g>
	<path class="st0" d="M424,347.4h9.3v2.4h-6.6v4.5h6.6v2.4h-6.6v4.4h6.6v2.4H424V347.4z"/>
	<path class="st0" d="M437.7,358.2h2.6c0,2.1,1.2,3.3,3.2,3.3c1.7,0,2.7-0.8,2.7-2.2c0-1.2-0.6-1.8-2.4-2.6l-2.6-1.1
		c-2-0.8-3.1-2.2-3.1-4.3c0-2.6,2.1-4.4,5.1-4.4c3.2,0,5.3,2,5.3,5H446c0-1.8-1-2.8-2.7-2.8c-1.5,0-2.4,0.8-2.4,2
		c0,1.1,0.8,1.8,2.7,2.6l2.4,1c2,0.8,3,2.2,3,4.4c0,2.7-2.1,4.6-5.3,4.6C439.9,363.8,437.7,361.8,437.7,358.2z"/>
	<path class="st0" d="M456.7,349.9h-4.6v-2.5h12v2.5h-4.7v13.6h-2.6V349.9z"/>
	<path class="st0" d="M467.8,361.7c0-1.1,0.8-1.9,1.9-1.9c1.1,0,1.9,0.9,1.9,1.9c0,1.1-0.9,1.9-1.9,1.9
		C468.7,363.6,467.8,362.7,467.8,361.7z"/>
	<path class="st0" d="M479.4,352.7h-3.3v-2.2c2.9,0,3.5-0.7,3.5-2.7h2.4v15.6h-2.6V352.7z"/>
	<path class="st0" d="M497.7,356.8l-4.9,6.6h-3.1l3.6-4.6h0c-3.5,0-5.6-2.5-5.6-5.6s2.1-5.6,5.6-5.6c3.5,0,5.6,2.5,5.6,5.6
		C498.8,354.6,498.4,355.8,497.7,356.8z M493.2,356.6c2,0,3.1-1.4,3.1-3.4c0-1.9-1.1-3.4-3.1-3.4s-3.1,1.4-3.1,3.4
		C490.1,355.1,491.2,356.6,493.2,356.6z"/>
	<path class="st0" d="M510.2,350.3h-7.1v-2.4h11l-7.9,15.6h-2.9L510.2,350.3z"/>
	<path class="st0" d="M527.3,356.8l-4.9,6.6h-3.1l3.6-4.6h0c-3.5,0-5.6-2.5-5.6-5.6s2.1-5.6,5.6-5.6c3.5,0,5.6,2.5,5.6,5.6
		C528.5,354.6,528,355.8,527.3,356.8z M522.8,356.6c2,0,3.1-1.4,3.1-3.4c0-1.9-1.1-3.4-3.1-3.4s-3.1,1.4-3.1,3.4
		C519.7,355.1,520.8,356.6,522.8,356.6z"/>
</g>
<g>
	<path class="st0" d="M546.9,169.9c2.1-1.1,4.2-1.5,6.2-1.8c2.1-0.3,4.2,0.2,6.2,0.4c2.1,0.2,4.2,0.4,6.2,0.6
		c2.1,0.3,4.2,0.5,6.2,0.8c0.1,0,0.2,0.1,0.2,0.2c0,0.1-0.1,0.2-0.2,0.2c-2.1,0.3-4.2,0.5-6.2,0.8c-2.1,0.2-4.2,0.4-6.2,0.6
		c-2.1,0.2-4.2,0.7-6.2,0.4c-2.1-0.3-4.2-0.7-6.2-1.8C546.8,170.2,546.7,170.1,546.9,169.9C546.8,169.9,546.8,169.9,546.9,169.9z"/>
	<path class="st0" d="M382.1,169.9c2.1-0.3,4.2-0.5,6.2-0.8c2.1-0.2,4.2-0.4,6.2-0.6c2.1-0.2,4.2-0.7,6.2-0.4
		c2.1,0.3,4.2,0.7,6.2,1.8c0.1,0.1,0.2,0.2,0.1,0.3c0,0-0.1,0.1-0.1,0.1c-2.1,1.1-4.2,1.5-6.2,1.8c-2.1,0.3-4.2-0.2-6.2-0.4
		c-2.1-0.2-4.2-0.4-6.2-0.6c-2.1-0.3-4.2-0.5-6.2-0.8c-0.1,0-0.2-0.1-0.2-0.2C382,169.9,382,169.9,382.1,169.9z"/>
</g>
<path class="st1" d="M477,219.5"/>
<g>
	<path class="st0" d="M108.8,222.3h11.3v29.4h28.3v-29.4h11.3v68.5h-11.3v-29h-28.3v29h-11.3V222.3z"/>
	<path class="st0" d="M216.5,282.1h-26.3l-2.6,8.7h-12.2l23.1-68.5h9.9l23.1,68.5h-12.2L216.5,282.1z M213.4,272l-10.2-34l-10.2,34
		H213.4z"/>
	<path class="st0" d="M247,222.3h11.8l27.1,49.7v-49.7h10.8v68.5h-11.8l-27.1-49.7v49.7H247V222.3z"/>
	<path class="st0" d="M318.2,222.3h23.2c22.7,0,34.5,16.4,34.5,34.2c0,17.8-11.8,34.2-34.5,34.2h-23.2V222.3z M340.4,280.7
		c16.7,0,24-11.9,24-24.2c0-12.2-7.2-24.2-24-24.2h-11v48.3H340.4z"/>
	<path class="st0" d="M389.2,256.6c0-20.9,13.3-35.9,35.6-35.9c18.9,0,31.1,10.7,33.2,25.1h-12.3c-2.2-9.3-9.4-15.1-20.7-15.1
		c-15.2,0-23.9,10.2-23.9,25.8c0,15.7,8.7,25.8,23.9,25.8c11.3,0,18.6-5.8,20.7-15.1h12.3c-2.1,14.5-14.3,25.1-33.2,25.1
		C402.5,292.5,389.2,277.5,389.2,256.6z"/>
	<path class="st0" d="M509.3,268.7l13.5,22.1H510l-12.5-20.5h-11.1v20.5h-11.3v-68.5h25.2c13.7,0,23.5,10,23.5,24
		C523.9,257,518.1,265.4,509.3,268.7z M486.4,260.2h13.3c7.4,0,12.9-5.9,12.9-13.9c0-8-5.5-13.9-12.9-13.9h-13.3V260.2z"/>
	<path class="st0" d="M576.8,282.1h-26.3l-2.6,8.7h-12.2l23.1-68.5h9.9l23.1,68.5h-12.2L576.8,282.1z M573.8,272l-10.2-34l-10.2,34
		H573.8z"/>
	<path class="st0" d="M607.4,222.3h39.5v10.1h-28.3v21.7h28.3v10.1h-28.3v26.6h-11.3V222.3z"/>
	<path class="st0" d="M679,232.9h-19.9v-10.6h51.1v10.6h-20v57.9H679V232.9z"/>
	<path class="st0" d="M724.9,222.3h39.5v10.1h-28.3v19.4h28.3v10.1h-28.3v18.9h28.3v10.1h-39.5V222.3z"/>
	<path class="st0" d="M784.9,222.3h23.2c22.7,0,34.5,16.4,34.5,34.2c0,17.8-11.8,34.2-34.5,34.2h-23.2V222.3z M807.1,280.7
		c16.7,0,24-11.9,24-24.2c0-12.2-7.2-24.2-24-24.2h-11v48.3H807.1z"/>
</g>
<g>
	<path class="st0" d="M450.6,207.8l-29.3-0.1c-19.5-0.2-39.1-0.2-58.6-0.5c-39.1-0.5-78.1-1.2-117.2-2.5c39.1-1.3,78.1-2,117.2-2.5
		c19.5-0.3,39.1-0.4,58.6-0.5l29.3-0.1l82.1,0.1c19.5,0.2,39.1,0.2,58.6,0.5c39.1,0.5,78.1,1.2,117.2,2.5
		c-39.1,1.3-78.1,2-117.2,2.5c-19.5,0.3-39.1,0.4-58.6,0.5L450.6,207.8z"/>
	<path class="st0" d="M450.6,318.8l-29.3-0.1c-19.5-0.2-39.1-0.2-58.6-0.5c-39.1-0.5-78.1-1.2-117.2-2.5c39.1-1.3,78.1-2,117.2-2.5
		c19.5-0.3,39.1-0.4,58.6-0.5l29.3-0.1l82.1,0.1c19.5,0.2,39.1,0.2,58.6,0.5c39.1,0.5,78.1,1.2,117.2,2.5
		c-39.1,1.3-78.1,2-117.2,2.5c-19.5,0.3-39.1,0.4-58.6,0.5L450.6,318.8z"/>
</g>
<g>
	<path class="st0" d="M420.3,172.8h2.5c0,2,1.1,3.2,3.1,3.2c1.7,0,2.6-0.8,2.6-2.2c0-1.2-0.5-1.8-2.3-2.5l-2.5-1
		c-1.9-0.7-2.9-2.1-2.9-4.1c0-2.5,2-4.2,4.9-4.2c3.1,0,5.1,1.9,5.1,4.8h-2.5c0-1.7-0.9-2.7-2.6-2.7c-1.5,0-2.3,0.7-2.3,1.9
		c0,1.1,0.7,1.8,2.6,2.5l2.3,0.9c1.9,0.8,2.9,2.2,2.9,4.2c0,2.6-2,4.4-5.1,4.4C422.4,178.2,420.3,176.3,420.3,172.8z"/>
	<path class="st0" d="M437,162.5h2.5v15.4H437V162.5z"/>
	<path class="st0" d="M462.6,172.4h-1.7c-0.8,3.6-3.4,5.8-7.5,5.8c-4.9,0-7.9-3.5-7.9-8c0-4.3,2.8-8.2,8.1-8.2c3.8,0,6.4,2.2,6.7,5
		h-2.8c-0.3-1.5-1.7-2.7-3.9-2.7c-3.8,0-5.5,2.7-5.5,5.9c0,3.2,2,5.7,5.3,5.7c2.5,0,4.2-1.1,4.8-3.6h-3v-2.3h7.3V172.4z"/>
	<path class="st0" d="M468.2,162.5h2.7l6.1,11.2v-11.2h2.4v15.4h-2.7l-6.1-11.2v11.2h-2.4V162.5z"/>
	<path class="st0" d="M494.1,175.9h-5.9l-0.6,2h-2.8l5.2-15.4h2.2l5.2,15.4h-2.8L494.1,175.9z M493.5,173.6l-2.3-7.6l-2.3,7.6H493.5
		z"/>
	<path class="st0" d="M518.3,172.4h-1.7c-0.8,3.6-3.4,5.8-7.5,5.8c-4.9,0-7.9-3.5-7.9-8c0-4.3,2.8-8.2,8.1-8.2c3.8,0,6.4,2.2,6.7,5
		h-2.8c-0.3-1.5-1.7-2.7-3.9-2.7c-3.8,0-5.5,2.7-5.5,5.9c0,3.2,2,5.7,5.3,5.7c2.5,0,4.2-1.1,4.8-3.6h-3v-2.3h7.3V172.4z"/>
	<path class="st0" d="M523.9,162.5h8.9v2.3h-6.4v4.4h6.4v2.3h-6.4v4.2h6.4v2.3h-8.9V162.5z"/>
</g>
</svg>
